# xmcd CD database file
#
# Track frame offsets:
#	150
#	21763
#	68644
#	101031
#	134607
#	168165
#	204183
#	225002
#	242080
#
# Disc length: 3396 seconds
#
# Revision: 0
# Processed by: cddbd v1.5PL3 Copyright (c) Steve Scherf et al.
# Submitted via: CDex 1.51
#
DISCID=680d4209
DTITLE=Viktor Khomenkov, Francois Jeanneau - Pap-Pap
DYEAR=2003
DGENRE=Jazz
TTITLE0=Pap-Pap
TTITLE1=Valse
TTITLE2=Le Djoudj
TTITLE3=Rampoon
TTITLE4=Heliodanse
TTITLE5=Easy Steps
TTITLE6=Sequence 4
TTITLE7=I Mean You
TTITLE8=Crepuscule With Nelly
EXTD=YEAR: 2003
EXTT0=
EXTT1=
EXTT2=
EXTT3=
EXTT4=
EXTT5=
EXTT6=
EXTT7=
EXTT8=
PLAYORDER=
